<svg width="30" height="30" viewBox="0 0 30 30" fill="none" xmlns="http://www.w3.org/2000/svg">
<path d="M15 19C14.2089 19 13.4355 18.7654 12.7777 18.3259C12.1199 17.8864 11.6072 17.2616 11.3045 16.5307C11.0017 15.7998 10.9225 14.9956 11.0769 14.2196C11.2312 13.4437 11.6122 12.731 12.1716 12.1716C12.731 11.6122 13.4437 11.2312 14.2196 11.0769C14.9956 10.9225 15.7998 11.0017 16.5307 11.3045C17.2616 11.6072 17.8864 12.1199 18.3259 12.7777C18.7654 13.4355 19 14.2089 19 15C18.9987 16.0605 18.5768 17.0771 17.827 17.827C17.0771 18.5768 16.0605 18.9987 15 19ZM15 13C14.6044 13 14.2178 13.1173 13.8889 13.3371C13.56 13.5568 13.3036 13.8692 13.1522 14.2346C13.0009 14.6001 12.9613 15.0022 13.0384 15.3902C13.1156 15.7781 13.3061 16.1345 13.5858 16.4142C13.8655 16.6939 14.2219 16.8844 14.6098 16.9616C14.9978 17.0387 15.3999 16.9991 15.7654 16.8478C16.1308 16.6964 16.4432 16.44 16.6629 16.1111C16.8827 15.7822 17 15.3956 17 15C16.9995 14.4697 16.7886 13.9613 16.4136 13.5864C16.0387 13.2114 15.5303 13.0005 15 13ZM4 19C3.20888 19 2.43552 18.7654 1.77772 18.3259C1.11992 17.8864 0.607234 17.2616 0.304484 16.5307C0.00173312 15.7998 -0.0774802 14.9956 0.0768607 14.2196C0.231202 13.4437 0.612165 12.731 1.17157 12.1716C1.73098 11.6122 2.44372 11.2312 3.21964 11.0769C3.99556 10.9225 4.79983 11.0017 5.53074 11.3045C6.26164 11.6072 6.88635 12.1199 7.32588 12.7777C7.76541 13.4355 8 14.2089 8 15C7.99868 16.0605 7.57683 17.0771 6.82697 17.827C6.07711 18.5768 5.06046 18.9987 4 19ZM4 13C3.60444 13 3.21776 13.1173 2.88886 13.3371C2.55996 13.5568 2.30362 13.8692 2.15224 14.2346C2.00087 14.6001 1.96126 15.0022 2.03843 15.3902C2.1156 15.7781 2.30608 16.1345 2.58579 16.4142C2.86549 16.6939 3.22186 16.8844 3.60982 16.9616C3.99778 17.0387 4.39992 16.9991 4.76537 16.8478C5.13082 16.6964 5.44318 16.44 5.66294 16.1111C5.8827 15.7822 6 15.3956 6 15C5.99947 14.4697 5.78859 13.9613 5.41363 13.5864C5.03867 13.2114 4.53027 13.0005 4 13ZM9 30C8.20888 30 7.43552 29.7654 6.77772 29.3259C6.11992 28.8864 5.60723 28.2616 5.30448 27.5307C5.00173 26.7998 4.92252 25.9956 5.07686 25.2196C5.2312 24.4437 5.61216 23.731 6.17157 23.1716C6.73098 22.6122 7.44372 22.2312 8.21964 22.0769C8.99556 21.9225 9.79983 22.0017 10.5307 22.3045C11.2616 22.6072 11.8864 23.1199 12.3259 23.7777C12.7654 24.4355 13 25.2089 13 26C12.9987 27.0605 12.5768 28.0771 11.827 28.827C11.0771 29.5768 10.0605 29.9987 9 30ZM9 24C8.60444 24 8.21776 24.1173 7.88886 24.3371C7.55996 24.5568 7.30362 24.8692 7.15224 25.2346C7.00087 25.6001 6.96126 26.0022 7.03843 26.3902C7.1156 26.7781 7.30608 27.1345 7.58579 27.4142C7.86549 27.6939 8.22186 27.8844 8.60982 27.9616C8.99778 28.0387 9.39992 27.9991 9.76537 27.8478C10.1308 27.6964 10.4432 27.44 10.6629 27.1111C10.8827 26.7822 11 26.3956 11 26C10.9995 25.4697 10.7886 24.9613 10.4136 24.5864C10.0387 24.2114 9.53027 24.0005 9 24ZM21 30C20.2089 30 19.4355 29.7654 18.7777 29.3259C18.1199 28.8864 17.6072 28.2616 17.3045 27.5307C17.0017 26.7998 16.9225 25.9956 17.0769 25.2196C17.2312 24.4437 17.6122 23.731 18.1716 23.1716C18.731 22.6122 19.4437 22.2312 20.2196 22.0769C20.9956 21.9225 21.7998 22.0017 22.5307 22.3045C23.2616 22.6072 23.8864 23.1199 24.3259 23.7777C24.7654 24.4355 25 25.2089 25 26C24.9987 27.0605 24.5768 28.0771 23.827 28.827C23.0771 29.5768 22.0605 29.9987 21 30ZM21 24C20.6044 24 20.2178 24.1173 19.8889 24.3371C19.56 24.5568 19.3036 24.8692 19.1522 25.2346C19.0009 25.6001 18.9613 26.0022 19.0384 26.3902C19.1156 26.7781 19.3061 27.1345 19.5858 27.4142C19.8655 27.6939 20.2219 27.8844 20.6098 27.9616C20.9978 28.0387 21.3999 27.9991 21.7654 27.8478C22.1308 27.6964 22.4432 27.44 22.6629 27.1111C22.8827 26.7822 23 26.3956 23 26C22.9995 25.4697 22.7886 24.9613 22.4136 24.5864C22.0387 24.2114 21.5303 24.0005 21 24ZM26 19C25.2089 19 24.4355 18.7654 23.7777 18.3259C23.1199 17.8864 22.6072 17.2616 22.3045 16.5307C22.0017 15.7998 21.9225 14.9956 22.0769 14.2196C22.2312 13.4437 22.6122 12.731 23.1716 12.1716C23.731 11.6122 24.4437 11.2312 25.2196 11.0769C25.9956 10.9225 26.7998 11.0017 27.5307 11.3045C28.2616 11.6072 28.8864 12.1199 29.3259 12.7777C29.7654 13.4355 30 14.2089 30 15C29.9987 16.0605 29.5768 17.0771 28.827 17.827C28.0771 18.5768 27.0605 18.9987 26 19ZM26 13C25.6044 13 25.2178 13.1173 24.8889 13.3371C24.56 13.5568 24.3036 13.8692 24.1522 14.2346C24.0009 14.6001 23.9613 15.0022 24.0384 15.3902C24.1156 15.7781 24.3061 16.1345 24.5858 16.4142C24.8655 16.6939 25.2219 16.8844 25.6098 16.9616C25.9978 17.0387 26.3999 16.9991 26.7654 16.8478C27.1308 16.6964 27.4432 16.44 27.6629 16.1111C27.8827 15.7822 28 15.3956 28 15C27.9995 14.4697 27.7886 13.9613 27.4136 13.5864C27.0387 13.2114 26.5303 13.0005 26 13ZM21 8C20.2089 8 19.4355 7.76541 18.7777 7.32588C18.1199 6.88635 17.6072 6.26164 17.3045 5.53074C17.0017 4.79983 16.9225 3.99556 17.0769 3.21964C17.2312 2.44372 17.6122 1.73098 18.1716 1.17157C18.731 0.612165 19.4437 0.231202 20.2196 0.0768607C20.9956 -0.0774802 21.7998 0.00173312 22.5307 0.304484C23.2616 0.607234 23.8864 1.11992 24.3259 1.77772C24.7654 2.43552 25 3.20888 25 4C24.9987 5.06046 24.5768 6.07711 23.827 6.82697C23.0771 7.57683 22.0605 7.99868 21 8ZM21 2C20.6044 2 20.2178 2.1173 19.8889 2.33706C19.56 2.55683 19.3036 2.86918 19.1522 3.23463C19.0009 3.60009 18.9613 4.00222 19.0384 4.39018C19.1156 4.77814 19.3061 5.13451 19.5858 5.41422C19.8655 5.69392 20.2219 5.8844 20.6098 5.96157C20.9978 6.03874 21.3999 5.99914 21.7654 5.84776C22.1308 5.69639 22.4432 5.44004 22.6629 5.11114C22.8827 4.78224 23 4.39556 23 4C22.9995 3.46973 22.7886 2.96133 22.4136 2.58637C22.0387 2.21142 21.5303 2.00053 21 2ZM9 8C8.20888 8 7.43552 7.76541 6.77772 7.32588C6.11992 6.88635 5.60723 6.26164 5.30448 5.53074C5.00173 4.79983 4.92252 3.99556 5.07686 3.21964C5.2312 2.44372 5.61216 1.73098 6.17157 1.17157C6.73098 0.612165 7.44372 0.231202 8.21964 0.0768607C8.99556 -0.0774802 9.79983 0.00173312 10.5307 0.304484C11.2616 0.607234 11.8864 1.11992 12.3259 1.77772C12.7654 2.43552 13 3.20888 13 4C12.9987 5.06046 12.5768 6.07711 11.827 6.82697C11.0771 7.57683 10.0605 7.99868 9 8ZM9 2C8.60444 2 8.21776 2.1173 7.88886 2.33706C7.55996 2.55683 7.30362 2.86918 7.15224 3.23463C7.00087 3.60009 6.96126 4.00222 7.03843 4.39018C7.1156 4.77814 7.30608 5.13451 7.58579 5.41422C7.86549 5.69392 8.22186 5.8844 8.60982 5.96157C8.99778 6.03874 9.39992 5.99914 9.76537 5.84776C10.1308 5.69639 10.4432 5.44004 10.6629 5.11114C10.8827 4.78224 11 4.39556 11 4C10.9995 3.46973 10.7886 2.96133 10.4136 2.58637C10.0387 2.21142 9.53027 2.00053 9 2Z" fill="black"/>
</svg>
