<svg width="143" height="73" viewBox="0 0 2742 1393" fill="none" xmlns="http://www.w3.org/2000/svg">
<path d="M2463.36 389.574C2372.57 387.37 2323.99 389.433 2245.49 404.724C2252.58 377.922 2252.9 360.278 2235.39 329.695C2155.94 202.723 2163.97 41.8431 2326.29 0C2293.27 57.6401 2294.55 85.8505 2312.58 124.808C2312.58 82.9648 2342.88 54.1075 2394.83 28.8574C2379.4 51.4182 2359.01 97.9799 2385.05 145.502C2415.18 200.499 2692.91 299.602 2615.53 398.246C2580.9 392.104 2560.77 389.929 2521.03 388.867C2516.51 325.902 2480.02 294.006 2389.84 239.551C2461.29 304.986 2474.35 338.96 2463.36 389.574Z" fill="#DA3738"/>
<path d="M2699.96 510.597L2699.96 467.41C2699.96 467.036 2699.84 466.702 2699.58 466.436C2634.92 401.398 2207.84 415.633 2154.95 465.724C2154.67 465.99 2154.55 466.323 2154.55 466.709V510.271C2154.55 511.552 2156 512.361 2157 511.563C2217.34 463.414 2627.1 449.793 2697.48 511.806C2698.45 512.663 2699.96 511.894 2699.96 510.597Z" fill="#DA3738"/>
<path d="M2699.96 542.573V524.886C2699.96 524.51 2699.84 524.175 2699.57 523.909C2634.91 459.234 2207.85 473.389 2154.95 523.202C2154.67 523.467 2154.55 523.801 2154.55 524.189V541.969C2154.55 543.248 2155.99 544.058 2156.99 543.263C2217.32 495.384 2627.11 482.102 2697.49 543.784C2698.46 544.638 2699.96 543.868 2699.96 542.573Z" fill="#DA3738"/>
<path d="M2335.08 577.774C2268.12 573.504 2237.82 571.357 2162.2 554.31C2156.32 552.984 2213.03 533.868 2216.71 533.868C2292.21 549.798 2328.29 542.747 2385.11 542.535H2462.33C2519.15 542.747 2556.71 545.465 2632.2 529.535C2635.88 529.535 2693.89 551.319 2688 552.645C2619.04 569.692 2584.35 573.504 2523.28 577.774L2444.63 976.997C2434.44 1002.48 2418.82 1001.06 2410.81 976.997C2402.8 952.93 2335.08 577.774 2335.08 577.774Z" fill="#DA3738"/>
<path d="M533.099 411.948V953.412H427.392L181.756 646.177V953.412H48.6709V411.948H152.857L398.493 717.662V411.948H533.099ZM827.121 960.256C786.562 960.256 746.509 954.933 706.964 944.286C667.419 933.64 635.225 919.19 610.383 900.939L655.251 799.794C681.615 816.525 709.499 829.453 738.905 838.579C768.817 847.198 798.729 851.507 828.642 851.507C859.061 851.507 882.382 847.451 898.606 839.34C914.83 830.721 922.942 818.807 922.942 803.597C922.942 789.908 915.59 778.754 900.888 770.136C886.185 761.01 858.554 752.138 817.995 743.519C766.789 733.379 726.99 720.958 698.599 706.255C670.208 691.045 650.182 673.301 638.521 653.021C627.367 632.742 621.79 608.153 621.79 579.254C621.79 546.3 631.169 516.641 649.928 490.278C668.687 463.407 695.05 442.621 729.018 427.918C762.987 412.708 801.771 405.104 845.372 405.104C884.41 405.104 922.181 410.681 958.684 421.834C995.694 432.481 1024.59 446.677 1045.38 464.421L1001.27 565.566C977.443 548.835 952.347 536.16 925.983 527.541C899.62 518.416 873.257 513.853 846.893 513.853C821.037 513.853 800.25 518.923 784.534 529.062C768.817 538.695 760.959 551.877 760.959 568.608C760.959 577.733 763.747 585.338 769.324 591.422C774.901 597.506 785.294 603.59 800.504 609.674C815.713 615.251 838.528 621.334 868.947 627.925C918.125 638.572 956.656 651.5 984.541 666.71C1012.93 681.413 1032.96 698.904 1044.62 719.183C1056.28 738.956 1062.11 762.784 1062.11 790.669C1062.11 843.396 1041.58 884.969 1000.51 915.388C959.445 945.3 901.648 960.256 827.121 960.256ZM1506.14 672.794C1538.08 681.92 1562.67 698.143 1579.9 721.465C1597.14 744.279 1605.76 772.164 1605.76 805.118C1605.76 835.03 1597.9 861.14 1582.19 883.448C1566.47 905.755 1543.91 922.993 1514.5 935.161C1485.6 947.328 1451.38 953.412 1411.84 953.412H1141.87V411.948H1404.99C1461.78 411.948 1506.9 424.623 1540.36 449.972C1573.82 475.322 1590.55 509.543 1590.55 552.637C1590.55 580.522 1583.2 605.111 1568.5 626.404C1553.79 647.698 1533.01 663.161 1506.14 672.794ZM1281.03 624.123H1380.66C1407.02 624.123 1426.29 620.067 1438.45 611.955C1450.62 603.843 1456.71 590.915 1456.71 573.17C1456.71 554.919 1450.37 541.484 1437.69 532.865C1425.53 524.246 1406.51 519.937 1380.66 519.937H1281.03V624.123ZM1395.11 845.423C1422.48 845.423 1442 841.114 1453.66 832.495C1465.83 823.876 1471.92 809.427 1471.92 789.148C1471.92 768.361 1466.09 753.658 1454.42 745.04C1442.76 736.421 1422.99 732.111 1395.11 732.111H1281.03V845.423H1395.11ZM1675.84 411.948H2062.16V521.458H1815.01V623.362H2046.19V732.872H1815.01V843.903H2062.16V953.412H1675.84V411.948Z" fill="black"/>
<path d="M108.07 1074.4V1164.64H90.4517L49.5123 1113.44V1164.64H27.3315V1074.4H44.6959L85.6353 1125.35V1074.4H108.07ZM203.589 1100.25V1164.64H181.028V1155.9C179.169 1158.94 176.465 1161.35 172.917 1163.12C169.368 1164.81 165.481 1165.66 161.256 1165.66C155.763 1165.66 150.863 1164.3 146.553 1161.6C142.244 1158.9 138.864 1155.05 136.413 1150.07C134.047 1145 132.864 1139.17 132.864 1132.57C132.864 1125.9 134.09 1119.98 136.54 1114.83C138.991 1109.68 142.37 1105.66 146.68 1102.79C150.989 1099.92 155.848 1098.48 161.256 1098.48C165.481 1098.48 169.325 1099.41 172.79 1101.27C176.339 1103.04 179.085 1105.45 181.028 1108.49V1100.25H203.589ZM168.354 1148.54C172.41 1148.54 175.536 1147.15 177.733 1144.36C179.93 1141.57 181.028 1137.56 181.028 1132.32C181.028 1127 179.93 1122.94 177.733 1120.15C175.536 1117.28 172.41 1115.84 168.354 1115.84C164.382 1115.84 161.256 1117.32 158.974 1120.28C156.693 1123.15 155.552 1127.25 155.552 1132.57C155.552 1137.73 156.651 1141.7 158.848 1144.49C161.045 1147.19 164.213 1148.54 168.354 1148.54ZM267.924 1147.15C269.444 1147.15 271.472 1146.9 274.007 1146.39V1163.75C270.881 1165.02 266.91 1165.66 262.093 1165.66C253.39 1165.66 246.757 1163.21 242.194 1158.3C237.715 1153.4 235.476 1146.6 235.476 1137.9V1117.11H223.435V1100.25H235.476V1085.68L258.417 1078.33V1100.25H273.881V1117.11H258.417V1137.9C258.417 1140.94 259.305 1143.26 261.079 1144.87C262.938 1146.39 265.22 1147.15 267.924 1147.15ZM295.303 1100.25H318.244V1164.64H295.303V1100.25ZM318.624 1068.69V1089.35H294.669V1068.69H318.624ZM377.063 1165.66C369.88 1165.66 363.628 1164.3 358.304 1161.6C352.981 1158.9 348.883 1155.01 346.01 1149.94C343.137 1144.87 341.7 1138.91 341.7 1132.07C341.7 1125.22 343.137 1119.27 346.01 1114.2C348.883 1109.13 352.981 1105.24 358.304 1102.54C363.628 1099.83 369.88 1098.48 377.063 1098.48C384.161 1098.48 390.329 1099.87 395.568 1102.66C400.891 1105.37 404.989 1109.25 407.862 1114.32C410.735 1119.31 412.172 1125.22 412.172 1132.07C412.172 1138.91 410.735 1144.87 407.862 1149.94C404.989 1154.92 400.891 1158.81 395.568 1161.6C390.329 1164.3 384.161 1165.66 377.063 1165.66ZM377.063 1148.54C385.344 1148.54 389.484 1143.05 389.484 1132.07C389.484 1126.49 388.428 1122.39 386.315 1119.77C384.287 1117.07 381.203 1115.72 377.063 1115.72C372.838 1115.72 369.669 1117.07 367.557 1119.77C365.444 1122.39 364.388 1126.49 364.388 1132.07C364.388 1137.73 365.444 1141.91 367.557 1144.62C369.669 1147.23 372.838 1148.54 377.063 1148.54ZM478.735 1098.48C486.34 1098.48 492.001 1100.8 495.719 1105.45C499.521 1110.01 501.423 1116.94 501.423 1126.24V1164.64H478.481V1127.25C478.481 1123.28 477.805 1120.45 476.453 1118.76C475.101 1116.98 472.989 1116.1 470.116 1116.1C466.652 1116.1 463.863 1117.28 461.751 1119.65C459.638 1121.93 458.582 1124.97 458.582 1128.77V1164.64H435.641V1118.76C435.641 1111.83 435.303 1105.66 434.627 1100.25H456.174L457.315 1109.76C459.765 1106.13 462.807 1103.34 466.44 1101.39C470.074 1099.45 474.172 1098.48 478.735 1098.48ZM595.219 1100.25V1164.64H572.658V1155.9C570.799 1158.94 568.095 1161.35 564.546 1163.12C560.997 1164.81 557.11 1165.66 552.885 1165.66C547.393 1165.66 542.492 1164.3 538.182 1161.6C533.873 1158.9 530.493 1155.05 528.042 1150.07C525.677 1145 524.494 1139.17 524.494 1132.57C524.494 1125.9 525.719 1119.98 528.169 1114.83C530.62 1109.68 534 1105.66 538.309 1102.79C542.618 1099.92 547.477 1098.48 552.885 1098.48C557.11 1098.48 560.955 1099.41 564.419 1101.27C567.968 1103.04 570.714 1105.45 572.658 1108.49V1100.25H595.219ZM559.983 1148.54C564.039 1148.54 567.165 1147.15 569.362 1144.36C571.559 1141.57 572.658 1137.56 572.658 1132.32C572.658 1127 571.559 1122.94 569.362 1120.15C567.165 1117.28 564.039 1115.84 559.983 1115.84C556.011 1115.84 552.885 1117.32 550.603 1120.28C548.322 1123.15 547.181 1127.25 547.181 1132.57C547.181 1137.73 548.28 1141.7 550.477 1144.49C552.674 1147.19 555.842 1148.54 559.983 1148.54ZM621.528 1071.36H644.47V1164.64H621.528V1071.36ZM754.246 1165.78C747.486 1165.78 740.811 1164.9 734.22 1163.12C727.629 1161.35 722.263 1158.94 718.123 1155.9L725.601 1139.04C729.995 1141.83 734.642 1143.98 739.543 1145.5C744.528 1146.94 749.514 1147.66 754.499 1147.66C759.569 1147.66 763.456 1146.98 766.16 1145.63C768.864 1144.19 770.216 1142.21 770.216 1139.67C770.216 1137.39 768.991 1135.53 766.54 1134.1C764.09 1132.57 759.485 1131.1 752.725 1129.66C744.19 1127.97 737.557 1125.9 732.825 1123.45C728.094 1120.91 724.756 1117.96 722.812 1114.58C720.953 1111.2 720.024 1107.1 720.024 1102.28C720.024 1096.79 721.587 1091.85 724.714 1087.45C727.84 1082.97 732.234 1079.51 737.895 1077.06C743.557 1074.52 750.021 1073.26 757.288 1073.26C763.794 1073.26 770.089 1074.19 776.173 1076.05C782.341 1077.82 787.158 1080.19 790.622 1083.14L783.271 1100C779.299 1097.21 775.117 1095.1 770.723 1093.66C766.329 1092.14 761.935 1091.38 757.541 1091.38C753.232 1091.38 749.767 1092.23 747.148 1093.92C744.528 1095.52 743.219 1097.72 743.219 1100.51C743.219 1102.03 743.683 1103.3 744.613 1104.31C745.542 1105.32 747.275 1106.34 749.81 1107.35C752.345 1108.28 756.147 1109.3 761.217 1110.39C769.413 1112.17 775.835 1114.32 780.482 1116.86C785.214 1119.31 788.552 1122.22 790.495 1125.6C792.439 1128.9 793.411 1132.87 793.411 1137.52C793.411 1146.31 789.988 1153.23 783.144 1158.3C776.3 1163.29 766.667 1165.78 754.246 1165.78ZM850.558 1165.66C843.375 1165.66 837.123 1164.3 831.799 1161.6C826.476 1158.9 822.378 1155.01 819.505 1149.94C816.632 1144.87 815.195 1138.91 815.195 1132.07C815.195 1125.22 816.632 1119.27 819.505 1114.2C822.378 1109.13 826.476 1105.24 831.799 1102.54C837.123 1099.83 843.375 1098.48 850.558 1098.48C857.656 1098.48 863.824 1099.87 869.063 1102.66C874.386 1105.37 878.484 1109.25 881.357 1114.32C884.23 1119.31 885.667 1125.22 885.667 1132.07C885.667 1138.91 884.23 1144.87 881.357 1149.94C878.484 1154.92 874.386 1158.81 869.063 1161.6C863.824 1164.3 857.656 1165.66 850.558 1165.66ZM850.558 1148.54C858.839 1148.54 862.979 1143.05 862.979 1132.07C862.979 1126.49 861.923 1122.39 859.81 1119.77C857.782 1117.07 854.698 1115.72 850.558 1115.72C846.333 1115.72 843.164 1117.07 841.052 1119.77C838.939 1122.39 837.883 1126.49 837.883 1132.07C837.883 1137.73 838.939 1141.91 841.052 1144.62C843.164 1147.23 846.333 1148.54 850.558 1148.54ZM941.076 1165.66C930.176 1165.66 921.641 1162.7 915.473 1156.78C909.305 1150.87 906.221 1142.8 906.221 1132.57C906.221 1125.81 907.699 1119.86 910.657 1114.7C913.699 1109.55 917.924 1105.58 923.331 1102.79C928.739 1099.92 934.992 1098.48 942.09 1098.48C946.822 1098.48 951.469 1099.2 956.032 1100.63C960.595 1101.99 964.229 1103.85 966.932 1106.21L961.102 1122.05C958.821 1120.2 956.159 1118.72 953.117 1117.62C950.075 1116.52 947.16 1115.97 944.371 1115.97C939.64 1115.97 936.006 1117.32 933.471 1120.03C930.936 1122.73 929.669 1126.74 929.669 1132.07C929.669 1137.48 930.936 1141.57 933.471 1144.36C936.006 1147.07 939.682 1148.42 944.498 1148.42C947.287 1148.42 950.16 1147.87 953.117 1146.77C956.159 1145.67 958.821 1144.19 961.102 1142.33L966.932 1157.92C964.144 1160.37 960.426 1162.28 955.779 1163.63C951.216 1164.98 946.315 1165.66 941.076 1165.66ZM987.041 1100.25H1009.98V1164.64H987.041V1100.25ZM1010.36 1068.69V1089.35H986.407V1068.69H1010.36ZM1095.8 1134.73H1055.37C1055.79 1139.71 1057.22 1143.31 1059.67 1145.5C1062.13 1147.7 1065.72 1148.8 1070.45 1148.8C1073.66 1148.8 1076.87 1148.29 1080.08 1147.28C1083.29 1146.18 1086.21 1144.7 1088.83 1142.84L1094.66 1158.05C1091.45 1160.42 1087.56 1162.28 1083 1163.63C1078.43 1164.98 1073.87 1165.66 1069.31 1165.66C1061.96 1165.66 1055.58 1164.3 1050.17 1161.6C1044.76 1158.9 1040.62 1155.05 1037.75 1150.07C1034.87 1145 1033.44 1139.04 1033.44 1132.19C1033.44 1125.69 1034.79 1119.9 1037.49 1114.83C1040.28 1109.68 1044.08 1105.66 1048.9 1102.79C1053.8 1099.92 1059.38 1098.48 1065.63 1098.48C1071.72 1098.48 1077.04 1099.83 1081.6 1102.54C1086.16 1105.24 1089.67 1109.13 1092.12 1114.2C1094.57 1119.18 1095.8 1125.01 1095.8 1131.69V1134.73ZM1066.27 1114.2C1060.6 1114.2 1057.06 1117.49 1055.62 1124.08H1076.15C1075.31 1117.49 1072.01 1114.2 1066.27 1114.2ZM1155.62 1147.15C1157.15 1147.15 1159.17 1146.9 1161.71 1146.39V1163.75C1158.58 1165.02 1154.61 1165.66 1149.79 1165.66C1141.09 1165.66 1134.46 1163.21 1129.89 1158.3C1125.42 1153.4 1123.18 1146.6 1123.18 1137.9V1117.11H1111.14V1100.25H1123.18V1085.68L1146.12 1078.33V1100.25H1161.58V1117.11H1146.12V1137.9C1146.12 1140.94 1147.01 1143.26 1148.78 1144.87C1150.64 1146.39 1152.92 1147.15 1155.62 1147.15ZM1250.91 1100.25L1221.38 1166.92C1217.49 1175.63 1212.59 1181.96 1206.67 1185.94C1200.84 1189.99 1193.62 1192.53 1185 1193.54L1179.68 1176.05C1185.59 1174.87 1190.03 1173.34 1192.98 1171.49C1195.94 1169.63 1198.18 1167.05 1199.7 1163.75L1201.35 1160.21L1175.11 1100.25H1198.94L1213.39 1137.39L1228.35 1100.25H1250.91ZM1349.72 1165.66C1342.54 1165.66 1336.29 1164.3 1330.97 1161.6C1325.64 1158.9 1321.54 1155.01 1318.67 1149.94C1315.8 1144.87 1314.36 1138.91 1314.36 1132.07C1314.36 1125.22 1315.8 1119.27 1318.67 1114.2C1321.54 1109.13 1325.64 1105.24 1330.97 1102.54C1336.29 1099.83 1342.54 1098.48 1349.72 1098.48C1356.82 1098.48 1362.99 1099.87 1368.23 1102.66C1373.55 1105.37 1377.65 1109.25 1380.52 1114.32C1383.4 1119.31 1384.83 1125.22 1384.83 1132.07C1384.83 1138.91 1383.4 1144.87 1380.52 1149.94C1377.65 1154.92 1373.55 1158.81 1368.23 1161.6C1362.99 1164.3 1356.82 1165.66 1349.72 1165.66ZM1349.72 1148.54C1358 1148.54 1362.15 1143.05 1362.15 1132.07C1362.15 1126.49 1361.09 1122.39 1358.98 1119.77C1356.95 1117.07 1353.86 1115.72 1349.72 1115.72C1345.5 1115.72 1342.33 1117.07 1340.22 1119.77C1338.11 1122.39 1337.05 1126.49 1337.05 1132.07C1337.05 1137.73 1338.11 1141.91 1340.22 1144.62C1342.33 1147.23 1345.5 1148.54 1349.72 1148.54ZM1445.2 1089.23C1442.5 1089.23 1440.26 1090.03 1438.49 1091.64C1436.71 1093.16 1435.82 1095.52 1435.82 1098.73V1100.25H1448.37V1117.11H1435.82V1164.64H1412.88V1117.11H1401.1V1100.25H1412.88V1098.48C1412.88 1089.78 1415.12 1082.97 1419.6 1078.07C1424.16 1073.17 1430.75 1070.72 1439.37 1070.72C1444.27 1070.72 1448.25 1071.31 1451.29 1072.5V1090.11C1448.84 1089.52 1446.81 1089.23 1445.2 1089.23ZM1583.02 1117.87C1588.34 1119.39 1592.44 1122.1 1595.31 1125.98C1598.18 1129.79 1599.62 1134.43 1599.62 1139.93C1599.62 1144.91 1598.31 1149.26 1595.69 1152.98C1593.07 1156.7 1589.31 1159.57 1584.41 1161.6C1579.59 1163.63 1573.89 1164.64 1567.3 1164.64H1522.31V1074.4H1566.16C1575.62 1074.4 1583.14 1076.51 1588.72 1080.73C1594.3 1084.96 1597.09 1090.66 1597.09 1097.85C1597.09 1102.49 1595.86 1106.59 1593.41 1110.14C1590.96 1113.69 1587.5 1116.27 1583.02 1117.87ZM1545.5 1109.76H1562.1C1566.5 1109.76 1569.71 1109.08 1571.74 1107.73C1573.76 1106.38 1574.78 1104.23 1574.78 1101.27C1574.78 1098.23 1573.72 1095.99 1571.61 1094.55C1569.58 1093.11 1566.41 1092.4 1562.1 1092.4H1545.5V1109.76ZM1564.51 1146.64C1569.07 1146.64 1572.33 1145.93 1574.27 1144.49C1576.3 1143.05 1577.31 1140.64 1577.31 1137.26C1577.31 1133.8 1576.34 1131.35 1574.4 1129.91C1572.45 1128.48 1569.16 1127.76 1564.51 1127.76H1545.5V1146.64H1564.51ZM1622.71 1071.36H1645.65V1164.64H1622.71V1071.36ZM1739.83 1100.25V1164.64H1717.27V1155.9C1715.41 1158.94 1712.71 1161.35 1709.16 1163.12C1705.61 1164.81 1701.72 1165.66 1697.5 1165.66C1692 1165.66 1687.1 1164.3 1682.79 1161.6C1678.48 1158.9 1675.1 1155.05 1672.65 1150.07C1670.29 1145 1669.11 1139.17 1669.11 1132.57C1669.11 1125.9 1670.33 1119.98 1672.78 1114.83C1675.23 1109.68 1678.61 1105.66 1682.92 1102.79C1687.23 1099.92 1692.09 1098.48 1697.5 1098.48C1701.72 1098.48 1705.57 1099.41 1709.03 1101.27C1712.58 1103.04 1715.33 1105.45 1717.27 1108.49V1100.25H1739.83ZM1704.59 1148.54C1708.65 1148.54 1711.78 1147.15 1713.97 1144.36C1716.17 1141.57 1717.27 1137.56 1717.27 1132.32C1717.27 1127 1716.17 1122.94 1713.97 1120.15C1711.78 1117.28 1708.65 1115.84 1704.59 1115.84C1700.62 1115.84 1697.5 1117.32 1695.22 1120.28C1692.93 1123.15 1691.79 1127.25 1691.79 1132.57C1691.79 1137.73 1692.89 1141.7 1695.09 1144.49C1697.29 1147.19 1700.45 1148.54 1704.59 1148.54ZM1798.08 1165.66C1787.18 1165.66 1778.65 1162.7 1772.48 1156.78C1766.31 1150.87 1763.22 1142.8 1763.22 1132.57C1763.22 1125.81 1764.7 1119.86 1767.66 1114.7C1770.7 1109.55 1774.93 1105.58 1780.34 1102.79C1785.74 1099.92 1792 1098.48 1799.09 1098.48C1803.83 1098.48 1808.47 1099.2 1813.04 1100.63C1817.6 1101.99 1821.23 1103.85 1823.94 1106.21L1818.11 1122.05C1815.83 1120.2 1813.16 1118.72 1810.12 1117.62C1807.08 1116.52 1804.16 1115.97 1801.38 1115.97C1796.64 1115.97 1793.01 1117.32 1790.48 1120.03C1787.94 1122.73 1786.67 1126.74 1786.67 1132.07C1786.67 1137.48 1787.94 1141.57 1790.48 1144.36C1793.01 1147.07 1796.69 1148.42 1801.5 1148.42C1804.29 1148.42 1807.16 1147.87 1810.12 1146.77C1813.16 1145.67 1815.83 1144.19 1818.11 1142.33L1823.94 1157.92C1821.15 1160.37 1817.43 1162.28 1812.78 1163.63C1808.22 1164.98 1803.32 1165.66 1798.08 1165.66ZM1888.91 1164.64L1866.99 1136.88V1164.64H1844.05V1071.36H1866.99V1127.12L1888.53 1100.38H1915.66L1890.31 1131.18L1916.67 1164.64H1888.91ZM1983.17 1074.4H2047.56V1092.65H2006.37V1109.63H2044.9V1127.88H2006.37V1146.39H2047.56V1164.64H1983.17V1074.4ZM2114.17 1098.48C2121.77 1098.48 2127.44 1100.8 2131.15 1105.45C2134.96 1110.01 2136.86 1116.94 2136.86 1126.24V1164.64H2113.92V1127.25C2113.92 1123.28 2113.24 1120.45 2111.89 1118.76C2110.54 1116.98 2108.42 1116.1 2105.55 1116.1C2102.09 1116.1 2099.3 1117.28 2097.19 1119.65C2095.07 1121.93 2094.02 1124.97 2094.02 1128.77V1164.64H2071.08V1118.76C2071.08 1111.83 2070.74 1105.66 2070.06 1100.25H2091.61L2092.75 1109.76C2095.2 1106.13 2098.24 1103.34 2101.88 1101.39C2105.51 1099.45 2109.61 1098.48 2114.17 1098.48ZM2231.41 1100.25V1160.59C2231.41 1171.15 2228.25 1179.18 2221.91 1184.67C2215.57 1190.24 2206.28 1193.03 2194.02 1193.03C2183.55 1193.03 2174.46 1191.17 2166.77 1187.46L2170.2 1170.73C2174 1172.42 2177.88 1173.73 2181.86 1174.65C2185.91 1175.67 2189.71 1176.18 2193.26 1176.18C2198.5 1176.18 2202.35 1175.03 2204.8 1172.75C2207.33 1170.56 2208.6 1167.09 2208.6 1162.36V1152.85C2206.49 1155.64 2203.61 1158.01 2199.98 1159.95C2196.43 1161.9 2192.63 1162.87 2188.57 1162.87C2183.08 1162.87 2178.14 1161.56 2173.74 1158.94C2169.43 1156.23 2166.06 1152.47 2163.6 1147.66C2161.15 1142.76 2159.93 1137.1 2159.93 1130.67C2159.93 1124.34 2161.15 1118.76 2163.6 1113.94C2166.06 1109.04 2169.43 1105.24 2173.74 1102.54C2178.14 1099.83 2183.08 1098.48 2188.57 1098.48C2192.88 1098.48 2196.81 1099.37 2200.36 1101.14C2203.91 1102.92 2206.66 1105.32 2208.6 1108.37V1100.25H2231.41ZM2195.67 1145.76C2199.73 1145.76 2202.9 1144.45 2205.18 1141.83C2207.46 1139.12 2208.6 1135.41 2208.6 1130.67C2208.6 1126.11 2207.46 1122.52 2205.18 1119.9C2202.9 1117.2 2199.73 1115.84 2195.67 1115.84C2191.62 1115.84 2188.4 1117.15 2186.04 1119.77C2183.76 1122.39 2182.62 1126.03 2182.62 1130.67C2182.62 1135.32 2183.8 1139 2186.17 1141.7C2188.53 1144.4 2191.7 1145.76 2195.67 1145.76ZM2257.58 1100.25H2280.52V1164.64H2257.58V1100.25ZM2280.9 1068.69V1089.35H2256.95V1068.69H2280.9ZM2349.99 1098.48C2357.59 1098.48 2363.26 1100.8 2366.97 1105.45C2370.78 1110.01 2372.68 1116.94 2372.68 1126.24V1164.64H2349.74V1127.25C2349.74 1123.28 2349.06 1120.45 2347.71 1118.76C2346.36 1116.98 2344.24 1116.1 2341.37 1116.1C2337.91 1116.1 2335.12 1117.28 2333.01 1119.65C2330.89 1121.93 2329.84 1124.97 2329.84 1128.77V1164.64H2306.9V1118.76C2306.9 1111.83 2306.56 1105.66 2305.88 1100.25H2327.43L2328.57 1109.76C2331.02 1106.13 2334.06 1103.34 2337.69 1101.39C2341.33 1099.45 2345.43 1098.48 2349.99 1098.48ZM2458.11 1134.73H2417.68C2418.1 1139.71 2419.53 1143.31 2421.98 1145.5C2424.44 1147.7 2428.03 1148.8 2432.76 1148.8C2435.97 1148.8 2439.18 1148.29 2442.39 1147.28C2445.6 1146.18 2448.52 1144.7 2451.14 1142.84L2456.97 1158.05C2453.76 1160.42 2449.87 1162.28 2445.31 1163.63C2440.74 1164.98 2436.18 1165.66 2431.62 1165.66C2424.27 1165.66 2417.89 1164.3 2412.48 1161.6C2407.07 1158.9 2402.93 1155.05 2400.06 1150.07C2397.18 1145 2395.75 1139.04 2395.75 1132.19C2395.75 1125.69 2397.1 1119.9 2399.8 1114.83C2402.59 1109.68 2406.39 1105.66 2411.21 1102.79C2416.11 1099.92 2421.69 1098.48 2427.94 1098.48C2434.03 1098.48 2439.35 1099.83 2443.91 1102.54C2448.47 1105.24 2451.98 1109.13 2454.43 1114.2C2456.88 1119.18 2458.11 1125.01 2458.11 1131.69V1134.73ZM2428.58 1114.2C2422.91 1114.2 2419.37 1117.49 2417.93 1124.08H2438.46C2437.62 1117.49 2434.32 1114.2 2428.58 1114.2ZM2540.84 1134.73H2500.41C2500.83 1139.71 2502.27 1143.31 2504.72 1145.5C2507.17 1147.7 2510.76 1148.8 2515.49 1148.8C2518.7 1148.8 2521.91 1148.29 2525.12 1147.28C2528.33 1146.18 2531.25 1144.7 2533.87 1142.84L2539.7 1158.05C2536.49 1160.42 2532.6 1162.28 2528.04 1163.63C2523.48 1164.98 2518.91 1165.66 2514.35 1165.66C2507 1165.66 2500.62 1164.3 2495.21 1161.6C2489.8 1158.9 2485.66 1155.05 2482.79 1150.07C2479.92 1145 2478.48 1139.04 2478.48 1132.19C2478.48 1125.69 2479.83 1119.9 2482.54 1114.83C2485.32 1109.68 2489.13 1105.66 2493.94 1102.79C2498.84 1099.92 2504.42 1098.48 2510.67 1098.48C2516.76 1098.48 2522.08 1099.83 2526.64 1102.54C2531.21 1105.24 2534.71 1109.13 2537.16 1114.2C2539.61 1119.18 2540.84 1125.01 2540.84 1131.69V1134.73ZM2511.31 1114.2C2505.65 1114.2 2502.1 1117.49 2500.66 1124.08H2521.19C2520.35 1117.49 2517.05 1114.2 2511.31 1114.2ZM2604.81 1098.73C2607.94 1098.73 2610.35 1099.2 2612.04 1100.13V1121.04C2608.4 1119.35 2604.9 1118.51 2601.52 1118.51C2591.89 1118.51 2587.07 1123.11 2587.07 1132.32V1164.64H2564.13V1118.76C2564.13 1111.83 2563.79 1105.66 2563.11 1100.25H2584.66L2586.06 1111.03C2587.58 1107.06 2590.03 1104.01 2593.41 1101.9C2596.79 1099.79 2600.59 1098.73 2604.81 1098.73ZM2656.63 1165.66C2643.78 1165.66 2633.65 1163.08 2626.21 1157.92L2632.04 1142.33C2635.5 1144.7 2639.43 1146.56 2643.83 1147.91C2648.22 1149.18 2652.53 1149.81 2656.76 1149.81C2659.37 1149.81 2661.4 1149.43 2662.84 1148.67C2664.28 1147.91 2664.99 1146.85 2664.99 1145.5C2664.99 1144.32 2664.44 1143.39 2663.35 1142.71C2662.33 1141.95 2660.35 1141.28 2657.39 1140.69L2647 1138.28C2640.4 1136.93 2635.63 1134.81 2632.67 1131.94C2629.8 1128.98 2628.36 1124.93 2628.36 1119.77C2628.36 1115.63 2629.59 1111.96 2632.04 1108.75C2634.49 1105.54 2637.87 1103.04 2642.18 1101.27C2646.57 1099.41 2651.6 1098.48 2657.26 1098.48C2661.91 1098.48 2666.47 1099.16 2670.95 1100.51C2675.43 1101.86 2679.61 1103.76 2683.5 1106.21L2677.42 1121.42C2674.04 1119.22 2670.57 1117.53 2667.02 1116.35C2663.47 1115.17 2660.14 1114.58 2657.01 1114.58C2654.47 1114.58 2652.49 1115 2651.05 1115.84C2649.62 1116.6 2648.9 1117.75 2648.9 1119.27C2648.9 1120.2 2649.32 1120.96 2650.16 1121.55C2651.01 1122.05 2652.61 1122.6 2654.98 1123.2L2665.75 1125.6C2672.6 1127.21 2677.5 1129.57 2680.46 1132.7C2683.5 1135.74 2685.02 1139.93 2685.02 1145.25C2685.02 1151.59 2682.48 1156.57 2677.42 1160.21C2672.43 1163.84 2665.5 1165.66 2656.63 1165.66Z" fill="#5BB161"/>
<path d="M110.297 288.256C94.665 288.256 81.0044 285.087 69.3155 278.75C57.7674 272.271 48.8247 263.188 42.4874 251.499C36.2908 239.81 33.1926 226.29 33.1926 210.94C33.1926 195.73 36.2908 182.351 42.4874 170.803C48.8247 159.114 57.7674 150.101 69.3155 143.764C81.0044 137.286 94.665 134.047 110.297 134.047C120.155 134.047 129.661 135.525 138.815 138.483C148.11 141.44 155.574 145.454 161.207 150.524L149.166 178.619C136.914 169.747 124.239 165.311 111.142 165.311C99.0307 165.311 89.7359 169.184 83.2577 176.929C76.7795 184.534 73.5404 195.871 73.5404 210.94C73.5404 226.15 76.7795 237.627 83.2577 245.373C89.7359 253.119 99.0307 256.991 111.142 256.991C124.239 256.991 136.914 252.555 149.166 243.683L161.207 271.779C155.574 276.848 148.11 280.862 138.815 283.82C129.661 286.777 120.155 288.256 110.297 288.256ZM231.722 288.044C219.751 288.044 209.33 285.791 200.458 281.285C191.585 276.778 184.755 270.3 179.967 261.85C175.179 253.4 172.785 243.472 172.785 232.064C172.785 220.657 175.179 210.729 179.967 202.279C184.755 193.829 191.585 187.351 200.458 182.844C209.33 178.338 219.751 176.084 231.722 176.084C243.552 176.084 253.832 178.408 262.564 183.055C271.436 187.562 278.266 194.04 283.055 202.49C287.843 210.799 290.237 220.657 290.237 232.064C290.237 243.472 287.843 253.4 283.055 261.85C278.266 270.159 271.436 276.637 262.564 281.285C253.832 285.791 243.552 288.044 231.722 288.044ZM231.722 259.526C245.523 259.526 252.424 250.372 252.424 232.064C252.424 222.77 250.664 215.939 247.143 211.574C243.763 207.067 238.623 204.814 231.722 204.814C224.68 204.814 219.399 207.067 215.879 211.574C212.358 215.939 210.597 222.77 210.597 232.064C210.597 241.5 212.358 248.471 215.879 252.978C219.399 257.343 224.68 259.526 231.722 259.526ZM376.037 176.507C381.248 176.507 385.262 177.281 388.078 178.831V213.686C382.023 210.869 376.178 209.461 370.545 209.461C354.49 209.461 346.463 217.136 346.463 232.487V286.354H308.227V209.884C308.227 198.336 307.664 188.055 306.537 179.042H342.449L344.773 196.998C347.308 190.379 351.392 185.309 357.025 181.788C362.658 178.267 368.996 176.507 376.037 176.507ZM470.82 176.084C483.495 176.084 492.931 179.957 499.127 187.703C505.465 195.308 508.633 206.856 508.633 222.347V286.354H470.398V224.037C470.398 217.418 469.271 212.7 467.018 209.884C464.765 206.926 461.244 205.448 456.456 205.448C450.682 205.448 446.034 207.419 442.514 211.362C438.993 215.165 437.232 220.235 437.232 226.572V286.354H398.997V209.884C398.997 198.336 398.434 188.055 397.307 179.042H433.219L435.12 194.885C439.204 188.83 444.274 184.182 450.33 180.943C456.385 177.704 463.216 176.084 470.82 176.084ZM629.893 236.501H562.506C563.21 244.81 565.604 250.795 569.688 254.456C573.772 258.118 579.758 259.949 587.644 259.949C592.996 259.949 598.347 259.104 603.699 257.414C609.05 255.583 613.909 253.119 618.275 250.02L627.992 275.37C622.64 279.313 616.162 282.411 608.557 284.665C600.953 286.918 593.348 288.044 585.743 288.044C573.491 288.044 562.858 285.791 553.845 281.285C544.832 276.778 537.931 270.37 533.143 262.061C528.355 253.611 525.96 243.683 525.96 232.276C525.96 221.432 528.214 211.785 532.72 203.335C537.368 194.744 543.705 188.055 551.732 183.267C559.901 178.479 569.195 176.084 579.617 176.084C589.757 176.084 598.629 178.338 606.234 182.844C613.838 187.351 619.683 193.829 623.767 202.279C627.851 210.588 629.893 220.305 629.893 231.431V236.501ZM580.673 202.279C571.237 202.279 565.322 207.771 562.928 218.756H597.15C595.742 207.771 590.249 202.279 580.673 202.279ZM647.582 130.878H685.817V286.354H647.582V130.878ZM708.645 130.878H746.88V286.354H708.645V130.878ZM909.165 288.493C884.449 288.493 865.754 282.314 853.079 269.957C840.404 257.44 834.067 239.141 834.067 215.059V117.147H877.557V216.723C877.557 228.922 880.25 238.27 885.637 244.766C891.182 251.261 899.025 254.509 909.165 254.509C919.146 254.509 926.83 251.261 932.217 244.766C937.603 238.111 940.297 228.764 940.297 216.723V117.147H984.262V215.059C984.262 238.824 977.766 257.044 964.775 269.719C951.942 282.235 933.405 288.493 909.165 288.493ZM1091.91 162.301C1106.17 162.301 1116.78 166.658 1123.75 175.371C1130.88 183.927 1134.45 196.918 1134.45 214.346V286.354H1091.43V216.247C1091.43 208.801 1090.16 203.493 1087.63 200.325C1085.09 196.998 1081.13 195.334 1075.75 195.334C1069.25 195.334 1064.02 197.552 1060.06 201.988C1056.1 206.266 1054.12 211.97 1054.12 219.099V286.354H1011.11V200.325C1011.11 187.333 1010.47 175.768 1009.2 165.628H1049.61L1051.74 183.452C1056.34 176.639 1062.04 171.411 1068.85 167.767C1075.67 164.123 1083.35 162.301 1091.91 162.301ZM1159.41 165.628H1202.42V286.354H1159.41V165.628ZM1203.13 106.453V145.19H1158.22V106.453H1203.13ZM1352.87 165.865L1299.16 286.354H1263.75L1210.75 165.865H1255.43L1282.52 235.26L1310.57 165.865H1352.87ZM1469.76 230.269H1393.95C1394.74 239.616 1397.43 246.35 1402.03 250.469C1406.62 254.588 1413.35 256.648 1422.23 256.648C1428.25 256.648 1434.27 255.698 1440.29 253.796C1446.31 251.737 1451.78 248.964 1456.69 245.479L1467.62 273.997C1461.6 278.433 1454.31 281.918 1445.75 284.453C1437.2 286.988 1428.64 288.256 1420.09 288.256C1406.3 288.256 1394.34 285.721 1384.2 280.651C1374.06 275.581 1366.3 268.372 1360.91 259.025C1355.53 249.519 1352.83 238.349 1352.83 225.516C1352.83 213.316 1355.37 202.464 1360.44 192.958C1365.67 183.293 1372.8 175.768 1381.83 170.381C1391.02 164.994 1401.47 162.301 1413.2 162.301C1424.6 162.301 1434.59 164.836 1443.14 169.905C1451.7 174.975 1458.27 182.263 1462.87 191.769C1467.46 201.117 1469.76 212.049 1469.76 224.565V230.269ZM1414.38 191.769C1403.77 191.769 1397.12 197.948 1394.42 210.306H1432.92C1431.34 197.948 1425.16 191.769 1414.38 191.769ZM1565.94 162.776C1571.81 162.776 1576.32 163.647 1579.49 165.39V204.603C1572.68 201.434 1566.1 199.849 1559.76 199.849C1541.7 199.849 1532.67 208.484 1532.67 225.753V286.354H1489.66V200.325C1489.66 187.333 1489.02 175.768 1487.76 165.628H1528.16L1530.77 185.828C1533.62 178.382 1538.22 172.678 1544.55 168.717C1550.89 164.756 1558.02 162.776 1565.94 162.776ZM1639.33 288.256C1615.25 288.256 1596.24 283.423 1582.29 273.759L1593.23 244.528C1599.72 248.964 1607.09 252.45 1615.33 254.985C1623.57 257.361 1631.65 258.549 1639.57 258.549C1644.48 258.549 1648.28 257.836 1650.98 256.41C1653.67 254.985 1655.02 253.004 1655.02 250.469C1655.02 248.251 1653.99 246.508 1651.93 245.241C1650.03 243.815 1646.3 242.547 1640.76 241.438L1621.27 236.923C1608.91 234.388 1599.96 230.427 1594.41 225.041C1589.03 219.495 1586.33 211.89 1586.33 202.226C1586.33 194.463 1588.63 187.571 1593.23 181.55C1597.82 175.53 1604.16 170.856 1612.24 167.529C1620.48 164.043 1629.9 162.301 1640.52 162.301C1649.23 162.301 1657.79 163.568 1666.19 166.103C1674.58 168.638 1682.42 172.203 1689.71 176.797L1678.31 205.315C1671.97 201.196 1665.47 198.027 1658.82 195.809C1652.16 193.591 1645.91 192.482 1640.04 192.482C1635.29 192.482 1631.57 193.274 1628.87 194.859C1626.18 196.285 1624.83 198.424 1624.83 201.275C1624.83 203.018 1625.63 204.444 1627.21 205.553C1628.79 206.504 1631.81 207.534 1636.24 208.643L1656.44 213.158C1669.27 216.168 1678.46 220.604 1684.01 226.466C1689.71 232.17 1692.56 240.013 1692.56 249.994C1692.56 261.876 1687.81 271.224 1678.31 278.037C1668.96 284.849 1655.97 288.256 1639.33 288.256ZM1711.06 165.628H1754.08V286.354H1711.06V165.628ZM1754.79 106.453V145.19H1709.87V106.453H1754.79ZM1851.05 253.559C1853.91 253.559 1857.71 253.083 1862.46 252.133V284.691C1856.6 287.067 1849.15 288.256 1840.12 288.256C1823.8 288.256 1811.37 283.661 1802.81 274.472C1794.41 265.283 1790.22 252.529 1790.22 236.21V197.235H1767.64V165.628H1790.22V138.298L1833.23 124.514V165.628H1862.22V197.235H1833.23V236.21C1833.23 241.914 1834.89 246.271 1838.22 249.281C1841.71 252.133 1845.98 253.559 1851.05 253.559ZM2005.94 165.628L1950.57 290.632C1943.28 306.951 1934.09 318.833 1923 326.28C1912.07 333.885 1898.53 338.638 1882.37 340.539L1872.38 307.743C1883.48 305.525 1891.79 302.673 1897.34 299.188C1902.88 295.702 1907.08 290.87 1909.93 284.691L1913.02 278.037L1863.83 165.628H1908.51L1935.6 235.26L1963.64 165.628H2005.94Z" fill="#FFE600"/>
</svg>
