<svg width="32" height="32" viewBox="0 0 32 32" fill="none" xmlns="http://www.w3.org/2000/svg">
<path d="M30.7688 16.6475L18.3538 4.23251C18.1223 3.99951 17.8469 3.81479 17.5435 3.68905C17.24 3.56331 16.9147 3.49905 16.5863 3.50001H5.00001C4.60219 3.50001 4.22066 3.65805 3.93935 3.93935C3.65805 4.22066 3.50001 4.60219 3.50001 5.00001V16.5863C3.49905 16.9147 3.56331 17.24 3.68905 17.5435C3.81479 17.8469 3.99951 18.1223 4.23251 18.3538L16.6475 30.7688C17.1163 31.2374 17.7521 31.5007 18.415 31.5007C19.0779 31.5007 19.7137 31.2374 20.1825 30.7688L30.7688 20.1825C31.2374 19.7137 31.5007 19.0779 31.5007 18.415C31.5007 17.7521 31.2374 17.1163 30.7688 16.6475ZM18.415 28.2938L6.50001 16.375V6.50001H16.375L28.29 18.415L18.415 28.2938ZM12.5 10.5C12.5 10.8956 12.3827 11.2823 12.1629 11.6112C11.9432 11.94 11.6308 12.1964 11.2654 12.3478C10.8999 12.4991 10.4978 12.5388 10.1098 12.4616C9.72187 12.3844 9.3655 12.1939 9.0858 11.9142C8.80609 11.6345 8.61561 11.2782 8.53844 10.8902C8.46127 10.5022 8.50088 10.1001 8.65225 9.73464C8.80363 9.36919 9.05997 9.05683 9.38887 8.83707C9.71777 8.61731 10.1044 8.50001 10.5 8.50001C11.0304 8.50001 11.5392 8.71072 11.9142 9.0858C12.2893 9.46087 12.5 9.96958 12.5 10.5Z" fill="black"/>
</svg>
