<svg width="28" height="26" viewBox="0 0 28 26" fill="none" xmlns="http://www.w3.org/2000/svg">
<path d="M16.667 5.99996V3.33329H11.3337V5.99996H16.667ZM3.33366 8.66663V23.3333H24.667V8.66663H3.33366ZM24.667 5.99996C26.147 5.99996 27.3337 7.18663 27.3337 8.66663V23.3333C27.3337 24.8133 26.147 26 24.667 26H3.33366C1.85366 26 0.666992 24.8133 0.666992 23.3333L0.680326 8.66663C0.680326 7.18663 1.85366 5.99996 3.33366 5.99996H8.66699V3.33329C8.66699 1.85329 9.85366 0.666626 11.3337 0.666626H16.667C18.147 0.666626 19.3337 1.85329 19.3337 3.33329V5.99996H24.667Z" fill="black"/>
</svg>
