<svg width="32" height="20" viewBox="0 0 32 20" fill="none" xmlns="http://www.w3.org/2000/svg">
<path d="M16 0.666626C14.7623 0.666626 13.5753 1.15829 12.7002 2.03346C11.825 2.90863 11.3333 4.09562 11.3333 5.33329C11.3333 6.57097 11.825 7.75795 12.7002 8.63312C13.5753 9.50829 14.7623 9.99996 16 9.99996C17.2377 9.99996 18.4247 9.50829 19.2998 8.63312C20.175 7.75795 20.6667 6.57097 20.6667 5.33329C20.6667 4.09562 20.175 2.90863 19.2998 2.03346C18.4247 1.15829 17.2377 0.666626 16 0.666626ZM16 3.33329C16.5304 3.33329 17.0391 3.54401 17.4142 3.91908C17.7893 4.29415 18 4.80286 18 5.33329C18 5.86373 17.7893 6.37243 17.4142 6.74751C17.0391 7.12258 16.5304 7.33329 16 7.33329C15.4696 7.33329 14.9609 7.12258 14.5858 6.74751C14.2107 6.37243 14 5.86373 14 5.33329C14 4.80286 14.2107 4.29415 14.5858 3.91908C14.9609 3.54401 15.4696 3.33329 16 3.33329ZM7.33333 4.66663C6.44928 4.66663 5.60143 5.01782 4.97631 5.64294C4.35119 6.26806 4 7.1159 4 7.99996C4 9.25329 4.70667 10.3333 5.72 10.9066C6.2 11.1733 6.74667 11.3333 7.33333 11.3333C7.92 11.3333 8.46667 11.1733 8.94667 10.9066C9.44 10.6266 9.85333 10.2266 10.16 9.74663C9.18865 8.48072 8.66357 6.92892 8.66667 5.33329V4.95996C8.26667 4.77329 7.81333 4.66663 7.33333 4.66663ZM24.6667 4.66663C24.1867 4.66663 23.7333 4.77329 23.3333 4.95996V5.33329C23.3333 6.93329 22.8133 8.47996 21.84 9.74663C22 9.99996 22.1733 10.2 22.3733 10.4C22.9882 10.9961 23.8103 11.3306 24.6667 11.3333C25.2533 11.3333 25.8 11.1733 26.28 10.9066C27.2933 10.3333 28 9.25329 28 7.99996C28 7.1159 27.6488 6.26806 27.0237 5.64294C26.3986 5.01782 25.5507 4.66663 24.6667 4.66663ZM16 12.6666C12.88 12.6666 6.66667 14.2266 6.66667 17.3333V19.3333H25.3333V17.3333C25.3333 14.2266 19.12 12.6666 16 12.6666ZM6.28 13.4C3.70667 13.7066 0 15.0133 0 17.3333V19.3333H4V16.76C4 15.4133 4.92 14.2933 6.28 13.4ZM25.72 13.4C27.08 14.2933 28 15.4133 28 16.76V19.3333H32V17.3333C32 15.0133 28.2933 13.7066 25.72 13.4ZM16 15.3333C18.04 15.3333 20.32 16 21.64 16.6666H10.36C11.68 16 13.96 15.3333 16 15.3333Z" fill="black"/>
</svg>
