<svg width="32" height="32" viewBox="0 0 32 32" fill="none" xmlns="http://www.w3.org/2000/svg">
<path d="M21.333 17.3333C20.3108 16.4 19.3161 15.4831 18.349 14.5826C17.3819 13.6822 16.5263 12.7991 15.7823 11.9333C15.0383 11.0666 14.4441 10.228 13.9997 9.41729C13.5552 8.60663 13.333 7.82307 13.333 7.06663C13.333 5.82218 13.7552 4.77774 14.5997 3.93329C15.4441 3.08885 16.4886 2.66663 17.733 2.66663C18.4441 2.66663 19.1108 2.81685 19.733 3.11729C20.3552 3.41774 20.8886 3.82307 21.333 4.33329C21.7775 3.82218 22.3108 3.41685 22.933 3.11729C23.5552 2.81774 24.2219 2.66751 24.933 2.66663C26.1775 2.66663 27.2219 3.08885 28.0663 3.93329C28.9108 4.77774 29.333 5.82218 29.333 7.06663C29.333 7.82218 29.1108 8.60574 28.6663 9.41729C28.2219 10.2288 27.6277 11.0675 26.8837 11.9333C26.1388 12.8 25.2886 13.6835 24.333 14.584C23.3775 15.4844 22.3775 16.4008 21.333 17.3333ZM21.333 13.7333C22.6441 12.4888 23.861 11.2497 24.9837 10.016C26.1063 8.78218 26.6672 7.79907 26.6663 7.06663C26.6663 6.55552 26.505 6.13907 26.1823 5.81729C25.8597 5.49551 25.4432 5.33418 24.933 5.33329C24.6219 5.33329 24.3272 5.39463 24.049 5.51729C23.7708 5.63996 23.5321 5.82307 23.333 6.06663L21.333 8.46663L19.333 6.06663C19.133 5.82218 18.8943 5.63863 18.617 5.51596C18.3397 5.39329 18.045 5.3324 17.733 5.33329C17.2219 5.33329 16.805 5.49463 16.4823 5.81729C16.1597 6.13996 15.9988 6.5564 15.9997 7.06663C15.9997 7.79996 16.561 8.78352 17.6837 10.0173C18.8063 11.2511 20.0228 12.4897 21.333 13.7333ZM18.6663 30L9.33301 27.4V29.3333H1.33301V14.6666H11.933L20.1997 17.7333C20.933 18 21.5272 18.4666 21.9823 19.1333C22.4375 19.8 22.6655 20.5333 22.6663 21.3333H25.333C26.4441 21.3333 27.3886 21.7 28.1663 22.4333C28.9441 23.1666 29.333 24.1333 29.333 25.3333V26.6666L18.6663 30ZM3.99967 26.6666H6.66634V17.3333H3.99967V26.6666ZM18.5997 27.2L26.533 24.7333C26.4663 24.4888 26.3166 24.3053 26.0837 24.1826C25.8508 24.06 25.6006 23.9991 25.333 24H18.933C18.2441 24 17.6219 23.9555 17.0663 23.8666C16.5108 23.7777 15.9108 23.6222 15.2663 23.4L12.9663 22.6L13.733 20.0666L16.3997 20.9333C16.7997 21.0666 17.2663 21.1666 17.7997 21.2333C18.333 21.3 19.0663 21.3333 19.9997 21.3333C19.9997 21.0888 19.9277 20.8555 19.7837 20.6333C19.6397 20.4111 19.4672 20.2666 19.2663 20.2L11.4663 17.3333H9.33301V24.6666L18.5997 27.2Z" fill="black"/>
</svg>
